<svg viewBox="0 0 44 9" fill="none" xmlns="http://www.w3.org/2000/svg">
<path d="M6.47461 3.99023V5.25586H1.98633V3.99023H6.47461ZM2.42578 0.46875V9H0.814453V0.46875H2.42578ZM7.66992 0.46875V9H6.05859V0.46875H7.66992ZM14.0086 1.76367L11.577 9H9.87187L13.0594 0.46875H14.1492L14.0086 1.76367ZM16.0418 9L13.5984 1.76367L13.452 0.46875H14.5477L17.7527 9H16.0418ZM15.9305 5.83008V7.10156H11.3543V5.83008H15.9305ZM23.1012 5.19727H20.9215L20.9098 4.06055H22.7789C23.0992 4.06055 23.3668 4.01562 23.5816 3.92578C23.7965 3.83594 23.9586 3.70508 24.068 3.5332C24.1812 3.36133 24.2379 3.15234 24.2379 2.90625C24.2379 2.63281 24.1852 2.41016 24.0797 2.23828C23.9781 2.06641 23.818 1.94141 23.5992 1.86328C23.3805 1.78125 23.1031 1.74023 22.7672 1.74023H21.443V9H19.8316V0.46875H22.7672C23.2516 0.46875 23.6832 0.515625 24.0621 0.609375C24.4449 0.699219 24.7691 0.839844 25.0348 1.03125C25.3004 1.22266 25.5016 1.46289 25.6383 1.75195C25.7789 2.04102 25.8492 2.38477 25.8492 2.7832C25.8492 3.13477 25.7672 3.45898 25.6031 3.75586C25.443 4.04883 25.1949 4.28711 24.859 4.4707C24.527 4.6543 24.1051 4.75977 23.5934 4.78711L23.1012 5.19727ZM23.0309 9H20.4469L21.1207 7.73438H23.0309C23.3512 7.73438 23.6148 7.68164 23.8219 7.57617C24.0328 7.4707 24.1891 7.32617 24.2906 7.14258C24.3961 6.95508 24.4488 6.74023 24.4488 6.49805C24.4488 6.23242 24.402 6.00195 24.3082 5.80664C24.2184 5.61133 24.0738 5.46094 23.8746 5.35547C23.6793 5.25 23.4215 5.19727 23.1012 5.19727H21.4254L21.4371 4.06055H23.5699L23.9391 4.5C24.4312 4.50391 24.8316 4.60156 25.1402 4.79297C25.4527 4.98438 25.6832 5.23047 25.8316 5.53125C25.9801 5.83203 26.0543 6.15625 26.0543 6.50391C26.0543 7.05078 25.9352 7.50977 25.6969 7.88086C25.4625 8.25195 25.1187 8.53125 24.6656 8.71875C24.2164 8.90625 23.6715 9 23.0309 9ZM34.3031 7.73438V9H29.768V7.73438H34.3031ZM30.2602 0.46875V9H28.6488V0.46875H30.2602ZM33.7113 3.99023V5.22656H29.768V3.99023H33.7113ZM34.2855 0.46875V1.74023H29.768V0.46875H34.2855ZM43.4777 0.46875V9H41.8605L38.2336 3.08203V9H36.6223V0.46875H38.2336L41.8723 6.39258V0.46875H43.4777Z" fill="currentColor"/>
</svg>
