<svg viewBox="0 0 49 10" fill="none" xmlns="http://www.w3.org/2000/svg">
<path d="M2.91211 7.36523L4.61133 0.46875H5.53125L5.58984 1.92188L3.77344 9H2.80078L2.91211 7.36523ZM1.83984 0.46875L3.23438 7.3418V9H2.17383L0.240234 0.46875H1.83984ZM7.35352 7.3125L8.72461 0.46875H10.3301L8.39648 9H7.33594L7.35352 7.3125ZM5.9707 0.46875L7.66992 7.38867L7.76953 9H6.79688L4.98633 1.91602L5.05664 0.46875H5.9707ZM13.8926 9.11719C13.4121 9.11719 12.9805 9.03906 12.5977 8.88281C12.2148 8.72656 11.8887 8.50977 11.6191 8.23242C11.3535 7.95117 11.1484 7.625 11.0039 7.25391C10.8633 6.87891 10.793 6.47656 10.793 6.04688V5.8125C10.793 5.32422 10.8633 4.88086 11.0039 4.48242C11.1445 4.08008 11.3438 3.73438 11.6016 3.44531C11.8594 3.15625 12.168 2.93359 12.5273 2.77734C12.8867 2.62109 13.2832 2.54297 13.7168 2.54297C14.166 2.54297 14.5625 2.61914 14.9062 2.77148C15.25 2.91992 15.5371 3.13086 15.7676 3.4043C15.998 3.67773 16.1719 4.00586 16.2891 4.38867C16.4062 4.76758 16.4648 5.1875 16.4648 5.64844V6.29883H11.4961V5.23242H14.9414V5.11523C14.9336 4.86914 14.8867 4.64453 14.8008 4.44141C14.7148 4.23438 14.582 4.07031 14.4023 3.94922C14.2227 3.82422 13.9902 3.76172 13.7051 3.76172C13.4746 3.76172 13.2734 3.8125 13.1016 3.91406C12.9336 4.01172 12.793 4.15234 12.6797 4.33594C12.5703 4.51562 12.4883 4.73047 12.4336 4.98047C12.3789 5.23047 12.3516 5.50781 12.3516 5.8125V6.04688C12.3516 6.3125 12.3867 6.55859 12.457 6.78516C12.5312 7.01172 12.6387 7.20898 12.7793 7.37695C12.9238 7.54102 13.0957 7.66992 13.2949 7.76367C13.498 7.85352 13.7285 7.89844 13.9863 7.89844C14.3105 7.89844 14.6035 7.83594 14.8652 7.71094C15.1309 7.58203 15.3613 7.39258 15.5566 7.14258L16.3359 7.95117C16.2031 8.14648 16.0234 8.33398 15.7969 8.51367C15.5742 8.69336 15.3047 8.83984 14.9883 8.95312C14.6719 9.0625 14.3066 9.11719 13.8926 9.11719ZM22.0312 3.96094V9H20.4844V2.66016H21.9434L22.0312 3.96094ZM21.8027 5.60156H21.3281C21.3281 5.16016 21.3809 4.75391 21.4863 4.38281C21.5957 4.01172 21.7559 3.68945 21.9668 3.41602C22.1777 3.13867 22.4375 2.92383 22.7461 2.77148C23.0586 2.61914 23.4199 2.54297 23.8301 2.54297C24.1152 2.54297 24.377 2.58594 24.6152 2.67188C24.8535 2.75391 25.0586 2.88477 25.2305 3.06445C25.4062 3.24023 25.541 3.4707 25.6348 3.75586C25.7285 4.03711 25.7754 4.375 25.7754 4.76953V9H24.2285V4.92773C24.2285 4.63086 24.1855 4.39844 24.0996 4.23047C24.0176 4.0625 23.8984 3.94531 23.7422 3.87891C23.5859 3.80859 23.3984 3.77344 23.1797 3.77344C22.9375 3.77344 22.7285 3.82227 22.5527 3.91992C22.3809 4.01367 22.2383 4.14453 22.125 4.3125C22.0156 4.48047 21.9336 4.67383 21.8789 4.89258C21.8281 5.11133 21.8027 5.34766 21.8027 5.60156ZM25.6582 5.31445L25.0195 5.43164C25.0234 5.0332 25.0781 4.66016 25.1836 4.3125C25.2891 3.96094 25.4434 3.6543 25.6465 3.39258C25.8535 3.12695 26.1094 2.91992 26.4141 2.77148C26.7227 2.61914 27.0781 2.54297 27.4805 2.54297C27.793 2.54297 28.0742 2.58789 28.3242 2.67773C28.5781 2.76367 28.7949 2.90234 28.9746 3.09375C29.1543 3.28125 29.291 3.52539 29.3848 3.82617C29.4824 4.12695 29.5312 4.49414 29.5312 4.92773V9H27.9727V4.92188C27.9727 4.61328 27.9297 4.37695 27.8438 4.21289C27.7617 4.04883 27.6426 3.93555 27.4863 3.87305C27.3301 3.80664 27.1465 3.77344 26.9355 3.77344C26.7207 3.77344 26.5332 3.81445 26.373 3.89648C26.2168 3.97461 26.084 4.08398 25.9746 4.22461C25.8691 4.36523 25.7891 4.5293 25.7344 4.7168C25.6836 4.90039 25.6582 5.09961 25.6582 5.31445ZM34.4121 7.65234V4.72852C34.4121 4.51367 34.375 4.32812 34.3008 4.17188C34.2266 4.01562 34.1133 3.89453 33.9609 3.80859C33.8086 3.72266 33.6152 3.67969 33.3809 3.67969C33.1738 3.67969 32.9922 3.71484 32.8359 3.78516C32.6836 3.85547 32.5664 3.95508 32.4844 4.08398C32.4023 4.20898 32.3613 4.35352 32.3613 4.51758H30.8086C30.8086 4.25586 30.8711 4.00781 30.9961 3.77344C31.1211 3.53516 31.2988 3.32422 31.5293 3.14062C31.7637 2.95312 32.043 2.80664 32.3672 2.70117C32.6953 2.5957 33.0625 2.54297 33.4688 2.54297C33.9492 2.54297 34.377 2.625 34.752 2.78906C35.1309 2.94922 35.4277 3.19141 35.6426 3.51562C35.8613 3.83984 35.9707 4.24805 35.9707 4.74023V7.50586C35.9707 7.82227 35.9902 8.09375 36.0293 8.32031C36.0723 8.54297 36.1348 8.73633 36.2168 8.90039V9H34.6406C34.5664 8.83984 34.5098 8.63672 34.4707 8.39062C34.4316 8.14062 34.4121 7.89453 34.4121 7.65234ZM34.6289 5.13867L34.6406 6.05859H33.6621C33.4199 6.05859 33.207 6.08398 33.0234 6.13477C32.8398 6.18164 32.6895 6.25195 32.5723 6.3457C32.4551 6.43555 32.3672 6.54492 32.3086 6.67383C32.25 6.79883 32.2207 6.94141 32.2207 7.10156C32.2207 7.25781 32.2559 7.39844 32.3262 7.52344C32.4004 7.64844 32.5059 7.74805 32.6426 7.82227C32.7832 7.89258 32.9473 7.92773 33.1348 7.92773C33.4082 7.92773 33.6465 7.87305 33.8496 7.76367C34.0527 7.65039 34.2109 7.51367 34.3242 7.35352C34.4375 7.19336 34.498 7.04102 34.5059 6.89648L34.9512 7.56445C34.8965 7.72461 34.8145 7.89453 34.7051 8.07422C34.5957 8.25391 34.4551 8.42188 34.2832 8.57812C34.1113 8.73438 33.9043 8.86328 33.6621 8.96484C33.4199 9.06641 33.1387 9.11719 32.8184 9.11719C32.4082 9.11719 32.041 9.03516 31.7168 8.87109C31.3926 8.70703 31.1367 8.48242 30.9492 8.19727C30.7617 7.91211 30.668 7.58789 30.668 7.22461C30.668 6.88867 30.7305 6.5918 30.8555 6.33398C30.9805 6.07617 31.166 5.85938 31.4121 5.68359C31.6582 5.50391 31.9629 5.36914 32.3262 5.2793C32.6934 5.18555 33.1133 5.13867 33.5859 5.13867H34.6289ZM38.9121 -0.00585938V9H37.3652V-0.00585938H38.9121ZM42.8848 2.66016L40.125 5.75977L38.6309 7.27734L38.1387 6.07617L39.293 4.62305L41.0156 2.66016H42.8848ZM41.3027 9L39.3398 6.04688L40.3711 5.04492L43.0957 9H41.3027ZM46.4355 9.11719C45.9551 9.11719 45.5234 9.03906 45.1406 8.88281C44.7578 8.72656 44.4316 8.50977 44.1621 8.23242C43.8965 7.95117 43.6914 7.625 43.5469 7.25391C43.4062 6.87891 43.3359 6.47656 43.3359 6.04688V5.8125C43.3359 5.32422 43.4062 4.88086 43.5469 4.48242C43.6875 4.08008 43.8867 3.73438 44.1445 3.44531C44.4023 3.15625 44.7109 2.93359 45.0703 2.77734C45.4297 2.62109 45.8262 2.54297 46.2598 2.54297C46.709 2.54297 47.1055 2.61914 47.4492 2.77148C47.793 2.91992 48.0801 3.13086 48.3105 3.4043C48.541 3.67773 48.7148 4.00586 48.832 4.38867C48.9492 4.76758 49.0078 5.1875 49.0078 5.64844V6.29883H44.0391V5.23242H47.4844V5.11523C47.4766 4.86914 47.4297 4.64453 47.3438 4.44141C47.2578 4.23438 47.125 4.07031 46.9453 3.94922C46.7656 3.82422 46.5332 3.76172 46.248 3.76172C46.0176 3.76172 45.8164 3.8125 45.6445 3.91406C45.4766 4.01172 45.3359 4.15234 45.2227 4.33594C45.1133 4.51562 45.0312 4.73047 44.9766 4.98047C44.9219 5.23047 44.8945 5.50781 44.8945 5.8125V6.04688C44.8945 6.3125 44.9297 6.55859 45 6.78516C45.0742 7.01172 45.1816 7.20898 45.3223 7.37695C45.4668 7.54102 45.6387 7.66992 45.8379 7.76367C46.041 7.85352 46.2715 7.89844 46.5293 7.89844C46.8535 7.89844 47.1465 7.83594 47.4082 7.71094C47.6738 7.58203 47.9043 7.39258 48.0996 7.14258L48.8789 7.95117C48.7461 8.14648 48.5664 8.33398 48.3398 8.51367C48.1172 8.69336 47.8477 8.83984 47.5312 8.95312C47.2148 9.0625 46.8496 9.11719 46.4355 9.11719Z" fill="currentColor"/>
</svg>
